#N canvas 636 101 691 353 12;
#X obj 152 75 bng 15 250 50 0 empty empty next 17 7 0 10 -262144 -1
-1;
#X obj 373 146 bng 15 250 50 0 empty empty B 17 7 0 10 -262144 -1 -1
;
#X obj 305 147 bng 15 250 50 0 empty empty A 17 7 0 10 -262144 -1 -1
;
#X obj 231 71 bng 15 250 50 0 empty empty prev 17 7 0 10 -262144 -1
-1;
#X obj 578 144 bng 15 250 50 0 empty empty E 17 7 0 10 -262144 -1 -1
;
#X obj 443 142 bng 15 250 50 0 empty empty C 17 7 0 10 -262144 -1 -1
;
#X obj 509 144 bng 15 250 50 0 empty empty D 17 7 0 10 -262144 -1 -1
;
#X msg 422 58 1;
#X floatatom 294 73 5 0 0 1 goto - -;
#X text 453 56 reset;
#X obj 577 27 loadbang;
#N canvas 631 257 683 521 index 0;
#X obj 172 33 inlet;
#X obj 302 35 inlet;
#X obj 404 41 inlet;
#X text 181 12 next;
#X text 302 8 previous;
#X text 451 9 goto;
#X obj 287 295 spigot;
#X msg 186 116 1;
#X msg 241 114 -1;
#X obj 241 160 f;
#X obj 187 161 +;
#X obj 314 266 f;
#X text 194 92 counter;
#X obj 367 266 - 1;
#X obj 275 268 b;
#X obj 380 84 moses 1;
#X obj 371 112 t b;
#X msg 364 136 1;
#X text 428 111 limiter;
#X text 272 232 outputs rewind and then a number of bangs to textfile
;
#X msg 215 268 rewind;
#X obj 216 231 t f b;
#X obj 65 219 outlet;
#X text 12 242 outputs current number;
#X msg 276 392 ???;
#X obj 184 460 outlet;
#X obj 509 455 outlet;
#X obj 442 420 route name;
#X obj 281 351 textfile;
#X obj 333 460 outlet;
#X obj 350 391 route start;
#X obj 464 350 route end;
#X text 157 478 sequence name;
#X text 506 477 command;
#X text 333 480 clear;
#X msg 69 321 read partage/index.txt;
#X obj 138 291 r core_load;
#X obj 33 292 r core_update;
#X connect 0 0 7 0;
#X connect 1 0 8 0;
#X connect 2 0 15 0;
#X connect 6 0 28 0;
#X connect 7 0 10 0;
#X connect 8 0 10 0;
#X connect 9 0 10 1;
#X connect 9 0 22 0;
#X connect 9 0 21 0;
#X connect 10 0 15 0;
#X connect 11 0 6 1;
#X connect 11 0 13 0;
#X connect 13 0 11 1;
#X connect 14 0 6 0;
#X connect 15 0 16 0;
#X connect 15 1 9 0;
#X connect 16 0 17 0;
#X connect 17 0 9 0;
#X connect 20 0 28 0;
#X connect 21 0 11 0;
#X connect 21 0 14 0;
#X connect 21 1 20 0;
#X connect 24 0 25 0;
#X connect 27 0 25 0;
#X connect 27 1 26 0;
#X connect 28 0 30 0;
#X connect 28 0 31 0;
#X connect 28 0 14 0;
#X connect 28 1 24 0;
#X connect 28 1 29 0;
#X connect 30 0 29 0;
#X connect 30 1 27 0;
#X connect 31 0 11 0;
#X connect 35 0 28 0;
#X connect 36 0 35 0;
#X connect 37 0 35 0;
#X restore 165 127 pd index;
#X obj 84 197 list prepend;
#N canvas 547 55 733 660 command 0;
#X obj 97 44 inlet;
#X obj 540 317 inlet;
#X obj 503 248 inlet;
#X obj 408 29 inlet;
#X obj 474 178 inlet;
#X obj 447 97 inlet;
#X text 89 14 command;
#X msg 503 275 next;
#X msg 540 348;
#X obj 24 45 inlet;
#X text 23 16 clear;
#X msg 408 54 play 1 un.wav;
#X msg 24 89 set;
#X msg 447 132 stop 1 3000;
#X msg 474 205 play 2 fx.wav;
#X text 406 9 A;
#X text 445 79 B;
#X text 473 158 C;
#X text 501 227 D;
#X text 539 297 E;
#N canvas 0 22 783 551 route 0;
#X obj 122 47 inlet;
#X obj 151 103 route a b c d e;
#X obj 71 176 list prepend set;
#X obj 71 200 list trim;
#X obj 71 224 outlet;
#X obj 210 176 list prepend set;
#X obj 210 200 list trim;
#X obj 210 224 outlet;
#X obj 342 178 list prepend set;
#X obj 342 202 list trim;
#X obj 342 226 outlet;
#X obj 478 179 list prepend set;
#X obj 478 203 list trim;
#X obj 478 227 outlet;
#X obj 608 178 list prepend set;
#X obj 608 202 list trim;
#X obj 608 226 outlet;
#X connect 0 0 1 0;
#X connect 1 0 2 0;
#X connect 1 1 5 0;
#X connect 1 2 8 0;
#X connect 1 3 11 0;
#X connect 1 4 14 0;
#X connect 2 0 3 0;
#X connect 3 0 4 0;
#X connect 5 0 6 0;
#X connect 6 0 7 0;
#X connect 8 0 9 0;
#X connect 9 0 10 0;
#X connect 11 0 12 0;
#X connect 12 0 13 0;
#X connect 14 0 15 0;
#X connect 15 0 16 0;
#X restore 98 91 pd route;
#X obj 28 338 route goto next prev;
#X obj 318 377 outlet;
#X obj 28 376 s core_goto;
#X obj 124 376 s core_next;
#X obj 220 377 s core_prev;
#X obj 24 139 s core_coma;
#X obj 25 172 s core_comb;
#X obj 26 200 s core_comc;
#X obj 27 226 s core_comd;
#X obj 27 253 s core_come;
#X obj 448 29 r core_coma;
#X obj 487 97 r core_comb;
#X obj 514 178 r core_comc;
#X obj 543 248 r core_comd;
#X obj 580 317 r core_come;
#X obj 410 379 s core_command;
#X obj 28 308 r core_command;
#X connect 0 0 20 0;
#X connect 1 0 8 0;
#X connect 2 0 7 0;
#X connect 3 0 11 0;
#X connect 4 0 14 0;
#X connect 5 0 13 0;
#X connect 7 0 36 0;
#X connect 8 0 36 0;
#X connect 9 0 12 0;
#X connect 11 0 36 0;
#X connect 12 0 26 0;
#X connect 12 0 27 0;
#X connect 12 0 28 0;
#X connect 12 0 29 0;
#X connect 12 0 30 0;
#X connect 13 0 36 0;
#X connect 14 0 36 0;
#X connect 20 0 26 0;
#X connect 20 1 27 0;
#X connect 20 2 28 0;
#X connect 20 3 29 0;
#X connect 20 4 30 0;
#X connect 21 0 23 0;
#X connect 21 1 22 0;
#X connect 21 1 24 0;
#X connect 21 2 22 0;
#X connect 21 2 25 0;
#X connect 21 3 22 0;
#X connect 31 0 11 0;
#X connect 32 0 13 0;
#X connect 33 0 14 0;
#X connect 34 0 7 0;
#X connect 35 0 8 0;
#X connect 37 0 21 0;
#X coords 0 660 1 659 250 150 0;
#X restore 353 211 pd command;
#N canvas 496 124 690 382 engine 0;
#X obj 53 25 inlet;
#X obj 57 127 route 1 2 3;
#X obj 159 127 route 1 2 3;
#X obj 58 197 player;
#X obj 125 196 player;
#X obj 194 197 player;
#X obj 56 71 route play stop custom;
#X obj 57 293 outlet~;
#X obj 126 295 outlet~;
#X obj 199 296 outlet~;
#X obj 277 297 outlet~;
#X obj 270 197 partage/custom;
#X text 117 25 play n° (loop) filename // stop n° fadeout(ms) //
custom message, f 65;
#X connect 0 0 6 0;
#X connect 1 0 3 0;
#X connect 1 1 4 0;
#X connect 1 2 5 0;
#X connect 2 0 3 1;
#X connect 2 1 4 1;
#X connect 2 2 5 1;
#X connect 3 0 7 0;
#X connect 3 1 8 0;
#X connect 3 2 9 0;
#X connect 3 3 10 0;
#X connect 4 0 7 0;
#X connect 4 1 8 0;
#X connect 4 2 9 0;
#X connect 4 3 10 0;
#X connect 5 0 7 0;
#X connect 5 1 8 0;
#X connect 5 2 9 0;
#X connect 5 3 10 0;
#X connect 6 0 1 0;
#X connect 6 1 2 0;
#X connect 6 2 11 0;
#X connect 11 0 7 0;
#X connect 11 1 8 0;
#X connect 11 2 9 0;
#X connect 11 3 10 0;
#X restore 352 243 pd engine;
#X obj 438 291 dac~ 1 2 3 4;
#X obj 577 51 s core_load;
#X obj 303 113 r core_a;
#X obj 372 113 r core_b;
#X obj 443 114 r core_c;
#X obj 509 115 r core_d;
#X obj 578 115 r core_e;
#X obj 146 21 r core_next;
#X obj 236 22 r core_prev;
#X obj 330 22 r core_goto;
#X obj 423 22 r core_load;
#N canvas 542 178 913 472 gpio 0;
#X obj 677 94 metro 5;
#X msg 677 66 1, f 4;
#X obj 677 38 r core_load;
#X obj 211 289 s core_a;
#X obj 287 324 s core_b;
#X obj 368 351 s core_c;
#X obj 449 383 s core_d;
#X obj 531 414 s core_e;
#X obj 118 260 s core_next;
#X obj 29 222 s core_prev;
#X obj 27 161 change 0;
#X obj 29 193 route 1;
#X obj 118 198 change 0;
#X obj 118 231 route 1;
#X obj 211 228 change 0;
#X obj 211 261 route 1;
#X obj 287 258 change 0;
#X obj 287 291 route 1;
#X obj 367 290 change 0;
#X obj 367 323 route 1;
#X obj 447 320 change 0;
#X obj 447 353 route 1;
#X obj 529 348 change 0;
#X obj 529 381 route 1;
#X obj 27 130 wiringPi pin 17 input;
#X obj 118 168 wiringPi pin 27 input;
#X obj 211 198 wiringPi pin 22 input;
#X obj 287 228 wiringPi pin 5 input;
#X obj 367 260 wiringPi pin 6 input;
#X obj 447 290 wiringPi pin 13 input;
#X obj 529 318 wiringPi pin 26 input;
#X connect 0 0 24 0;
#X connect 0 0 25 0;
#X connect 0 0 26 0;
#X connect 0 0 27 0;
#X connect 0 0 28 0;
#X connect 0 0 29 0;
#X connect 0 0 30 0;
#X connect 1 0 0 0;
#X connect 2 0 1 0;
#X connect 10 0 11 0;
#X connect 11 0 9 0;
#X connect 12 0 13 0;
#X connect 13 0 8 0;
#X connect 14 0 15 0;
#X connect 15 0 3 0;
#X connect 16 0 17 0;
#X connect 17 0 4 0;
#X connect 18 0 19 0;
#X connect 19 0 5 0;
#X connect 20 0 21 0;
#X connect 21 0 6 0;
#X connect 22 0 23 0;
#X connect 23 0 7 0;
#X connect 24 0 10 0;
#X connect 25 0 12 0;
#X connect 26 0 14 0;
#X connect 27 0 16 0;
#X connect 28 0 18 0;
#X connect 29 0 20 0;
#X connect 30 0 22 0;
#X restore 22 21 pd gpio;
#X obj 84 228 s core_name;
#N canvas 0 22 556 249 vumon 0;
#X obj 30 35 inlet~;
#X obj 31 119 list prepend 1;
#X obj 239 196 s core_vu;
#X obj 238 166 list trim;
#X obj 159 31 inlet~;
#X obj 292 30 inlet~;
#X obj 160 115 list prepend 2;
#X obj 293 114 list prepend 3;
#X obj 411 28 inlet~;
#X obj 412 112 list prepend 4;
#X obj 30 62 env~ 16384;
#X obj 159 58 env~ 16384;
#X obj 293 57 env~ 16384;
#X obj 411 55 env~ 16384;
#X obj 30 88 - 100;
#X obj 159 85 - 100;
#X obj 292 84 - 100;
#X obj 414 85 - 100;
#X connect 0 0 10 0;
#X connect 1 0 3 0;
#X connect 3 0 2 0;
#X connect 4 0 11 0;
#X connect 5 0 12 0;
#X connect 6 0 3 0;
#X connect 7 0 3 0;
#X connect 8 0 13 0;
#X connect 9 0 3 0;
#X connect 10 0 14 0;
#X connect 11 0 15 0;
#X connect 12 0 16 0;
#X connect 13 0 17 0;
#X connect 14 0 1 0;
#X connect 15 0 6 0;
#X connect 16 0 7 0;
#X connect 17 0 9 0;
#X restore 259 296 pd vumon;
#N canvas 788 135 384 116 lcd 0;
#X obj 113 16 r core_name;
#X obj 205 18 list prepend send;
#X obj 205 42 list trim;
#X msg 23 41 connect localhost 13001;
#X obj 206 68 netsend -u localhost;
#X obj 24 16 r core_load;
#X connect 0 0 1 0;
#X connect 1 0 2 0;
#X connect 2 0 4 0;
#X connect 3 0 4 0;
#X connect 5 0 3 0;
#X restore 22 48 pd lcd;
#N canvas 139 235 451 458 tcpio 0;
#X obj 48 330 netreceive 13000;
#X obj 205 61 list prepend coma;
#X obj 53 122 list prepend comb;
#X obj 202 124 list prepend comc;
#X obj 51 182 list prepend comd;
#X obj 207 184 list prepend come;
#X obj 48 277 list prepend send;
#X obj 48 303 list trim;
#X obj 205 29 r core_coma;
#X obj 53 90 r core_comb;
#X obj 202 92 r core_comc;
#X obj 52 151 r core_comd;
#X obj 207 152 r core_come;
#X obj 48 381 s core_command;
#X obj 52 20 r core_name;
#X obj 52 53 list prepend name;
#X obj 261 382 s core_goto;
#X obj 48 357 route command update;
#X obj 208 214 r core_vu;
#X obj 208 238 list prepend vu;
#X obj 157 382 s core_update;
#X connect 0 0 17 0;
#X connect 0 1 16 0;
#X connect 1 0 6 0;
#X connect 2 0 6 0;
#X connect 3 0 6 0;
#X connect 4 0 6 0;
#X connect 5 0 6 0;
#X connect 6 0 7 0;
#X connect 7 0 0 0;
#X connect 8 0 1 0;
#X connect 9 0 2 0;
#X connect 10 0 3 0;
#X connect 11 0 4 0;
#X connect 12 0 5 0;
#X connect 14 0 15 0;
#X connect 15 0 6 0;
#X connect 17 0 13 0;
#X connect 17 1 20 0;
#X connect 18 0 19 0;
#X connect 19 0 6 0;
#X restore 22 75 pd tcpio;
#X connect 0 0 11 0;
#X connect 1 0 13 3;
#X connect 2 0 13 2;
#X connect 3 0 11 1;
#X connect 4 0 13 6;
#X connect 5 0 13 4;
#X connect 6 0 13 5;
#X connect 7 0 8 0;
#X connect 8 0 11 2;
#X connect 10 0 16 0;
#X connect 10 0 7 0;
#X connect 11 0 12 1;
#X connect 11 1 12 0;
#X connect 11 2 13 0;
#X connect 11 3 13 1;
#X connect 12 0 27 0;
#X connect 13 0 14 0;
#X connect 14 0 15 0;
#X connect 14 0 28 0;
#X connect 14 1 15 1;
#X connect 14 1 28 1;
#X connect 14 2 15 2;
#X connect 14 2 28 2;
#X connect 14 3 15 3;
#X connect 14 3 28 3;
#X connect 17 0 2 0;
#X connect 18 0 1 0;
#X connect 19 0 5 0;
#X connect 20 0 6 0;
#X connect 21 0 4 0;
#X connect 22 0 0 0;
#X connect 23 0 3 0;
#X connect 24 0 8 0;
#X connect 25 0 7 0;
