#N canvas 450 47 490 672 12;
#X msg 259 146;
#X text 244 146 A;
#X obj 34 47 list prepend set;
#X obj 34 69 list trim;
#X msg 258 95 1 ???;
#X text 194 94 Sequence;
#X msg 258 186;
#X text 243 186 B;
#X msg 260 235;
#X text 245 235 C;
#X msg 263 286;
#X text 248 286 D;
#X msg 263 333;
#X text 248 333 E;
#X obj 34 25 r name;
#X obj 34 130 r coma;
#X obj 34 152 s command;
#X obj 34 177 r comb;
#X obj 34 199 s command;
#X obj 34 223 r comc;
#X obj 34 246 s command;
#X obj 34 272 r comd;
#X obj 34 293 s command;
#X obj 35 321 r come;
#X obj 35 342 s command;
#N canvas 366 289 651 442 IO 0;
#X obj 69 110 r command;
#X obj 47 22 loadbang;
#X obj 69 142 list prepend command;
#X obj 69 174 list prepend send;
#X obj 69 200 list trim;
#X obj 46 238 netsend;
#X obj 89 394 s coma;
#X obj 141 395 s comb;
#X obj 193 394 s comc;
#X obj 245 395 s comd;
#X obj 296 395 s come;
#X obj 348 395 s name;
#X msg 47 332 Déconnecté;
#X msg 49 364 set;
#X obj 45 297 route 0;
#X floatatom 29 265 5 0 0 0 - - -;
#X msg 47 54 connect raspberrypi.local 13000;
#X obj 240 148 r update;
#X obj 142 331 route coma comb comc comd come name vu;
#X obj 408 394 s vu;
#X obj 238 261 s coma;
#X obj 290 262 s comb;
#X obj 342 261 s comc;
#X obj 394 262 s comd;
#X obj 445 262 s come;
#X msg 467 227 prev;
#X msg 523 227 next;
#X obj 506 263 s command;
#X obj 348 129 keyname;
#X obj 405 128 list append bang;
#X obj 405 155 list trim;
#X obj 353 186 route a b c d e Up Down;
#X obj 353 154 spigot;
#X msg 48 81 connect localhost 13000;
#X connect 0 0 2 0;
#X connect 1 0 16 0;
#X connect 1 0 15 0;
#X connect 2 0 3 0;
#X connect 3 0 4 0;
#X connect 4 0 5 0;
#X connect 5 0 15 0;
#X connect 5 1 18 0;
#X connect 12 0 11 0;
#X connect 12 0 13 0;
#X connect 13 0 6 0;
#X connect 13 0 7 0;
#X connect 13 0 8 0;
#X connect 13 0 9 0;
#X connect 13 0 10 0;
#X connect 14 0 12 0;
#X connect 15 0 14 0;
#X connect 16 0 5 0;
#X connect 17 0 3 0;
#X connect 18 0 6 0;
#X connect 18 1 7 0;
#X connect 18 2 8 0;
#X connect 18 3 9 0;
#X connect 18 4 10 0;
#X connect 18 5 11 0;
#X connect 18 6 19 0;
#X connect 25 0 27 0;
#X connect 26 0 27 0;
#X connect 28 0 32 1;
#X connect 28 1 29 0;
#X connect 29 0 30 0;
#X connect 30 0 32 0;
#X connect 31 0 20 0;
#X connect 31 1 21 0;
#X connect 31 2 22 0;
#X connect 31 3 23 0;
#X connect 31 4 24 0;
#X connect 31 5 25 0;
#X connect 31 6 26 0;
#X connect 32 0 31 0;
#X connect 33 0 5 0;
#X restore 413 28 pd IO;
#X msg 268 572 update;
#X obj 40 594 s update;
#X text 176 571 Update Index;
#X floatatom 268 526 5 0 0 0 - - -;
#X obj 37 549 list prepend goto;
#X obj 37 570 s command;
#X text 225 524 Go to;
#X text 220 25 REMOTE CONTROLLER;
#X obj 188 395 vu 15 120 empty empty -1 -8 0 10 -66577 -1 1 0;
#X obj 242 395 vu 15 120 empty empty -1 -8 0 10 -66577 -1 1 0;
#X obj 299 393 vu 15 120 empty empty -1 -8 0 10 -66577 -1 1 0;
#X obj 357 392 vu 15 120 empty empty -1 -8 0 10 -66577 -1 1 0;
#N canvas 0 22 450 239 vu 0;
#X obj 170 18 r vu;
#X obj 51 179 outlet;
#X obj 143 179 outlet;
#X obj 250 178 outlet;
#X obj 341 177 outlet;
#X obj 169 73 route 1 2 3 4;
#X connect 0 0 5 0;
#X connect 5 0 1 0;
#X connect 5 1 2 0;
#X connect 5 2 3 0;
#X connect 5 3 4 0;
#X restore 35 366 pd vu;
#X connect 0 0 16 0;
#X connect 2 0 3 0;
#X connect 3 0 4 0;
#X connect 6 0 18 0;
#X connect 8 0 20 0;
#X connect 10 0 22 0;
#X connect 12 0 24 0;
#X connect 14 0 2 0;
#X connect 15 0 0 0;
#X connect 17 0 6 0;
#X connect 19 0 8 0;
#X connect 21 0 10 0;
#X connect 23 0 12 0;
#X connect 26 0 27 0;
#X connect 29 0 30 0;
#X connect 30 0 31 0;
#X connect 38 0 34 0;
#X connect 38 1 35 0;
#X connect 38 2 36 0;
#X connect 38 3 37 0;
