#N canvas 234 106 676 456 12;
#X obj 194 131 list trim;
#X msg 177 182 1;
#X obj 452 113 line~;
#X msg 452 86 0 \$1;
#X obj 342 307 *~;
#X obj 34 71 route loop;
#X msg 34 101 1;
#X obj 34 129 spigot;
#X msg 72 101 0;
#X obj 34 37 inlet;
#X obj 388 307 *~;
#X obj 452 47 inlet;
#X obj 173 258 readsf~ 4;
#X obj 429 306 *~;
#X obj 478 305 *~;
#X obj 306 362 outlet~;
#X obj 373 365 outlet~;
#X obj 438 364 outlet~;
#X obj 506 364 outlet~;
#X obj 190 66 makefilename partage/%s;
#X obj 190 101 list prepend open;
#X obj 190 29 symbol;
#X text 450 22 mute;
#X text 30 16 play;
#X obj 195 154 t b a;
#X obj 37 179 list prepend set;
#X msg 34 234 open partage/deux.wav;
#X obj 37 203 list trim;
#X msg 333 102 1;
#X connect 0 0 24 0;
#X connect 1 0 12 0;
#X connect 2 0 4 1;
#X connect 2 0 10 1;
#X connect 2 0 13 1;
#X connect 2 0 14 1;
#X connect 3 0 2 0;
#X connect 4 0 15 0;
#X connect 5 0 6 0;
#X connect 5 0 21 0;
#X connect 5 1 8 0;
#X connect 5 1 21 0;
#X connect 6 0 7 1;
#X connect 7 0 26 0;
#X connect 8 0 7 1;
#X connect 9 0 5 0;
#X connect 9 0 28 0;
#X connect 10 0 16 0;
#X connect 11 0 3 0;
#X connect 12 0 4 0;
#X connect 12 1 10 0;
#X connect 12 2 13 0;
#X connect 12 3 14 0;
#X connect 12 4 7 0;
#X connect 13 0 17 0;
#X connect 14 0 18 0;
#X connect 19 0 20 0;
#X connect 20 0 0 0;
#X connect 20 0 25 0;
#X connect 21 0 19 0;
#X connect 24 0 1 0;
#X connect 24 1 12 0;
#X connect 25 0 27 0;
#X connect 26 0 24 0;
#X connect 27 0 26 0;
#X connect 28 0 2 0;
